<svg height="496pt" viewBox="0 0 496 496" width="496pt" xmlns="http://www.w3.org/2000/svg"><path d="m360 344h16v80c0 17.671875 14.328125 32 32 32h8c17.671875 0 32 14.328125 32 32h-88" fill="#bab8b9"/><path d="m360 488h-88c0-17.671875 14.328125-32 32-32h8c17.671875 0 32-14.328125 32-32v-80h16" fill="#d9d7d8"/><path d="m200 376c0 53.019531-42.980469 96-96 96s-96-42.980469-96-96 42.980469-96 96-96 96 42.980469 96 96zm0 0" fill="#eea273"/><path d="m56 392c0 53.015625 42.984375 96 96 96s96-42.984375 96-96zm0 0" fill="#df9363"/><path d="m216 392c0 35.34375-28.65625 64-64 64s-64-28.65625-64-64" fill="#eea273"/><path d="m40 232h32c17.671875 0 32 14.328125 32 32h-32c-17.671875 0-32-14.328125-32-32zm0 0" fill="#5da351"/><path d="m72 232h-27.558594c5.542969 9.527344 15.742188 16 27.558594 16h27.558594c-5.542969-9.527344-15.742188-16-27.558594-16zm0 0" fill="#74c865"/><path d="m328 104c0 53.019531-42.980469 96-96 96s-96-42.980469-96-96 42.980469-96 96-96 96 42.980469 96 96zm0 0" fill="#df9363"/><path d="m296 104c0 35.347656-28.652344 64-64 64s-64-28.652344-64-64 28.652344-64 64-64 64 28.652344 64 64zm0 0" fill="#eea273"/><path d="m488 104v112c0 70.695312-57.304688 128-128 128s-128-57.304688-128-128v-112zm0 0" fill="#efedee"/><path d="m232 208c0 70.695312 57.304688 128 128 128 17.183594 0 33.550781-3.441406 48.527344-9.585938 37.929687-22.214843 63.472656-63.285156 63.472656-110.414062v-112h-240zm0 0" fill="#fff"/><path d="m360 344c65.265625 0 119.007812-48.878906 126.894531-112h-88.269531c-14.488281 0-28.386719-5.753906-38.625-16s-24.136719-16-38.625-16h-89.375v16c0 70.695312 57.304688 128 128 128zm0 0" fill="#df9363"/><path d="m348.289062 343.40625c59.613282-5.679688 107.222657-52.292969 114.605469-111.40625h-88.261719c-14.488281 0-28.386718-5.753906-38.625-16-10.238281-10.246094-24.136718-16-38.625-16h-65.382812v16c0 66.734375 51.089844 121.488281 116.289062 127.40625zm0 0" fill="#eea273"/><path d="m263.996094 216 72-72 55.996094 55.996094-72 72zm0 0" fill="#999"/><path d="m368.855469 223.144531c-3.167969-2.054687-6.144531-4.433593-8.855469-7.144531-10.246094-10.246094-24.136719-16-38.625-16h-41.375l-16 16 56 56zm0 0" fill="#bab8b9"/><path d="m456 232v-184c0-4.414062 3.585938-8 8-8h24v-32h-32c-17.671875 0-32 14.328125-32 32v192" fill="#bab8b9"/><path d="m424 104h32v128h-32zm0 0" fill="#d9d7d8"/><path d="m232 208c-57.34375 0-104-46.65625-104-104s46.65625-104 104-104 104 46.65625 104 104h-16c0-48.519531-39.480469-88-88-88s-88 39.480469-88 88 39.480469 88 88 88zm0 0"/><path d="m232 176c-39.695312 0-72-32.296875-72-72s32.304688-72 72-72 72 32.296875 72 72h-16c0-30.871094-25.121094-56-56-56s-56 25.128906-56 56 25.121094 56 56 56zm0 0"/><path d="m192.839844 164.421875 64-127.996094 14.3125 7.152344-64 128zm0 0"/><path d="m192.839844 43.582031 14.308594-7.15625 32 63.996094-14.3125 7.15625zm0 0"/><path d="m168 96h128v16h-128zm0 0"/><path d="m152 496c-57.34375 0-104-46.65625-104-104 0-4.425781 3.585938-8 8-8h192c4.414062 0 8 3.574219 8 8 0 57.34375-46.65625 104-104 104zm-87.640625-96c4.054687 44.792969 41.808594 80 87.640625 80s83.585938-35.207031 87.640625-80zm0 0"/><path d="m144.835938 395.570312 14.308593-7.15625 32 63.996094-14.3125 7.15625zm0 0"/><path d="m112.832031 452.417969 32-63.996094 14.308594 7.15625-32 63.996094zm0 0"/><path d="m152 464c-39.695312 0-72-32.296875-72-72h16c0 30.871094 25.121094 56 56 56s56-25.128906 56-56h16c0 39.703125-32.304688 72-72 72zm0 0"/><path d="m98.265625 479.839844c-55.097656-3-98.265625-48.617188-98.265625-103.839844 0-57.34375 46.65625-104 104-104s104 46.65625 104 104c0 5.824219-.488281 11.648438-1.441406 17.328125l-15.78125-2.65625c.816406-4.808594 1.222656-9.742187 1.222656-14.671875 0-48.519531-39.480469-88-88-88s-88 39.480469-88 88c0 46.734375 36.511719 85.328125 83.136719 87.871094zm0 0"/><path d="m106.742188 336h-5.496094c-10.679688 0-20.726563-4.167969-28.277344-11.71875l-6.632812-6.625 11.3125-11.3125 6.632812 6.625c4.472656 4.472656 10.65625 7.03125 16.976562 7.03125h5.496094c6.316406 0 12.492188-2.558594 16.964844-7.03125l6.632812-6.625 11.3125 11.3125-6.632812 6.625c-7.558594 7.550781-17.605469 11.71875-28.289062 11.71875zm0 0"/><path d="m112 328h-16v-40c0-35.289062 28.710938-64 64-64v16c-26.472656 0-48 21.527344-48 48zm0 0"/><path d="m104 272h-32c-22.054688 0-40-17.945312-40-40 0-4.425781 3.585938-8 8-8h32c22.054688 0 40 17.945312 40 40 0 4.425781-3.585938 8-8 8zm-54.632812-32c3.304687 9.3125 12.199218 16 22.632812 16h22.632812c-3.304687-9.3125-12.199218-16-22.632812-16zm0 0"/><path d="m360 352c-74.992188 0-136-61.007812-136-136v-112c0-4.425781 3.585938-8 8-8h256c4.414062 0 8 3.574219 8 8v112c0 74.992188-61.007812 136-136 136zm-120-240v104c0 66.167969 53.832031 120 120 120s120-53.832031 120-120v-104zm0 0"/><path d="m488 240h-89.367188c-16.730468 0-32.457031-6.511719-44.289062-18.34375-8.808594-8.808594-20.519531-13.65625-32.976562-13.65625h-89.367188v-16h89.367188c16.730468 0 32.457031 6.511719 44.289062 18.34375 8.808594 8.808594 20.519531 13.65625 32.976562 13.65625h89.367188zm0 0"/><path d="m360 352c-74.992188 0-136-61.007812-136-136v-16c0-4.425781 3.585938-8 8-8h89.367188c16.730468 0 32.457031 6.511719 44.289062 18.34375 8.808594 8.808594 20.519531 13.65625 32.976562 13.65625h88.261719c2.296875 0 4.480469.984375 6 2.703125 1.519531 1.730469 2.226563 4.015625 1.945313 6.289063-8.488282 67.839843-66.457032 119.007812-134.839844 119.007812zm-120-144v8c0 66.167969 53.832031 120 120 120 57.273438 0 106.265625-40.671875 117.488281-96h-78.855469c-16.730468 0-32.457031-6.511719-44.289062-18.34375-8.808594-8.808594-20.519531-13.65625-32.976562-13.65625zm0 0"/><path d="m320 280c-2.046875 0-4.097656-.785156-5.65625-2.34375l-56-56c-3.128906-3.128906-3.128906-8.183594 0-11.3125l72-72c3.128906-3.128906 8.183594-3.128906 11.3125 0l56 56c3.128906 3.128906 3.128906 8.183594 0 11.3125l-72 72c-1.558594 1.558594-3.609375 2.34375-5.65625 2.34375zm-44.6875-64 44.6875 44.6875 60.6875-60.6875-44.6875-44.6875zm0 0"/><path d="m464 232h-16v-184c0-8.824219 7.175781-16 16-16h16v-16h-24c-13.230469 0-24 10.769531-24 24v192h-16v-192c0-22.054688 17.945312-40 40-40h32c4.414062 0 8 3.574219 8 8v32c0 4.425781-3.585938 8-8 8h-24zm0 0"/><path d="m448 496h-176c-4.414062 0-8-3.574219-8-8 0-22.054688 17.945312-40 40-40h8c13.230469 0 24-10.769531 24-24v-80h16v80c0 22.054688-17.945312 40-40 40h-8c-10.433594 0-19.328125 6.6875-22.632812 16h157.257812c-3.304688-9.3125-12.199219-16-22.632812-16h-8c-22.054688 0-40-17.945312-40-40v-80h16v80c0 13.230469 10.769531 24 24 24h8c22.054687 0 40 17.945312 40 40 .007812 4.425781-3.578126 8-7.992188 8zm0 0"/></svg>